<svg xmlns="http://www.w3.org/2000/svg" id="Layer_2" viewBox="0 0 155.91 142.7"><defs><style>      .st0 {        fill: #fff;      }    </style></defs><g id="Layer_1"><path class="st0" d="M65.13,61.22c0,.85.1,1.67.28,2.45,2.12.66,4.25,1.17,6.39,1.46-.81-1.05-1.31-2.39-1.31-3.89,0-3.48,2.65-6.1,5.84-6.1s5.72,2.62,5.72,6.1c0,1.46-.45,2.77-1.2,3.81.93-.15,1.85-.35,2.76-.59,1.23-.32,2.44-.73,3.63-1.19.13-.66.2-1.35.2-2.06,0-5.98-4.78-10.47-11.17-10.47s-11.14,4.45-11.14,10.47"></path><path class="st0" d="M38.84,103.22l1.23,3.19h-2.49s1.26-3.19,1.26-3.19ZM37.78,101.04l-3.72,8.63h2.26l.63-1.59h3.77l.62,1.59h2.34l-3.64-8.63h-2.26ZM54.32,102.77h1.66c.95,0,1.5.46,1.5,1.36s-.56,1.39-1.5,1.39h-1.66v-2.75ZM52.12,101.04v8.63h2.2v-2.43h1.73l1.28,2.43h2.49l-1.81-2.85c1.01-.51,1.57-1.46,1.57-2.78,0-1.93-1.31-3.01-3.59-3.01h-3.87ZM72.56,103.22l1.23,3.19h-2.49s1.26-3.19,1.26-3.19ZM71.5,101.04l-3.73,8.63h2.26l.63-1.59h3.77l.62,1.59h2.34l-3.64-8.63h-2.26.01ZM105.86,101.04v3.55h-3.58v-3.55h-2.2v8.63h2.2v-3.35h3.58v3.35h2.2v-8.63h-2.2ZM140.92,101.04v5.33l-3.98-5.33h-1.94v8.63h2.06v-5.32l3.97,5.32h1.94v-8.63h-2.05ZM23.21,101.03l-2.34,5.14-2.34-5.14h-2.41v8.65h1.96v-5.61l2.07,4.75h1.43l2.07-4.75v5.61h1.95v-8.65h-2.39ZM84.13,101.03v1.78h2.58v6.87h2.2v-6.87h2.6v-1.78h-7.38ZM119.11,105.36c0-1.46,1.11-2.55,2.44-2.55s2.39,1.1,2.39,2.55-1.06,2.58-2.39,2.58-2.44-1.12-2.44-2.58M116.86,105.35c0,2.53,2,4.43,4.66,4.43s4.67-1.91,4.67-4.43-2-4.38-4.67-4.38-4.66,1.86-4.66,4.38M61.23,75.3v20.64h16.48v-4.13h-11.23v-4.16h9.85v-4.13h-9.85v-4.1h10.91v-4.13h-16.16ZM90.33,80.52l2.95,7.63h-5.95l3.01-7.63h-.01ZM87.79,75.3l-8.9,20.64h5.39l1.5-3.8h9.02l1.47,3.8h5.6l-8.7-20.64h-5.39,0ZM117.95,75.3v12.74l-9.52-12.74h-4.63v20.64h4.92v-12.7l9.49,12.7h4.63v-20.64s-4.89,0-4.89,0ZM21.5,85.62c0-3.48,2.65-6.1,5.84-6.1s5.72,2.62,5.72,6.1-2.54,6.16-5.72,6.16-5.84-2.68-5.84-6.16M16.14,85.59c0,6.04,4.78,10.58,11.14,10.58s11.17-4.57,11.17-10.58-4.78-10.47-11.17-10.47-11.14,4.45-11.14,10.47M39.48,85.56c0,6.04,4.63,10.61,10.85,10.61,3.04,0,6.31-1.5,8.52-3.77l-3.07-3.24c-1.44,1.47-3.45,2.42-5.19,2.42-3.27,0-5.75-2.62-5.75-6.07s2.48-5.98,5.75-5.98c1.83,0,3.83,1.03,5.19,2.68l3.04-3.6c-2.06-2.12-5.25-3.48-8.31-3.48-6.28,0-11.03,4.48-11.03,10.44M126.67,81.28c0,7.31,10.91,5.13,10.91,8.78,0,1.18-1.03,1.8-2.68,1.8-2.15,0-5.34-1.24-7.46-3.09l-2.03,4.04c2.45,2.01,5.98,3.3,9.43,3.3,4.6,0,8.25-2.18,8.25-6.31,0-7.46-10.91-5.42-10.91-8.99,0-1,.91-1.5,2.27-1.5,1.68,0,4.42.88,6.6,2.15l1.98-4.1c-2.12-1.39-5.16-2.3-8.14-2.3-4.95,0-8.22,2.42-8.22,6.22M104.16,66.7c-1.92.47-3.78,1.19-5.36,2.31,3.75-.92,7.4-.79,11.03-.28,3.64.51,7.26,1.39,11.01,2.08,3.74.68,7.65,1.23,11.63.84,1.98-.2,3.96-.66,5.79-1.47,1.82-.82,3.48-1.94,4.78-3.38-1.74.83-3.49,1.47-5.28,1.8-1.78.35-3.58.45-5.38.4-3.61-.11-7.22-.83-10.92-1.5-3.69-.68-7.5-1.36-11.43-1.41h-.21c-1.89,0-3.8.16-5.66.6M54.54,71.57h5.39l1.12-3.38c-.62-.26-1.25-.53-1.86-.8-2.29-1.03-4.5-2.18-6.68-3.34l2.02,7.53h.01ZM25.94,57.37c-1.28.48-2.49,1.11-3.66,1.82v12.37h5.25v-14.69c-.54.14-1.07.3-1.59.5M41.39,71.57h5.42l2.52-9.24c-.32-.17-.64-.35-.97-.52-.87-.46-1.74-.92-2.61-1.36l-1.47,5.66-1.93-7.27c-1.59-.69-3.21-1.31-4.87-1.76-.3-.08-.6-.15-.89-.22l4.81,14.71h0ZM34.64,50.93l.84,2.57c.86,0,1.72.06,2.57.16,1.03.13,2.05.31,3.06.54l-.87-3.27h-5.6ZM48.23,50.93l-1.32,5.08c1.07.41,2.12.84,3.16,1.28.19.08.38.17.57.25l.15.07c1.66.72,3.3,1.46,4.93,2.19l-2.36-8.88h-5.13ZM61.38,50.93l-2.67,10.19c.84.36,1.68.71,2.52,1.05.53.21,1.07.42,1.61.62l3.91-11.85h-5.37ZM16.12,50.9v4.25h6.16v2.84c1.09-.79,2.23-1.51,3.44-2.13,1.86-.95,3.87-1.66,5.96-2.05.68-.13,1.37-.21,2.06-.26v-2.65h-17.63,0Z"></path><path class="st0" d="M138.57,50.85l-2.29-.03-6.76-.04-6.76-.04h-6.76c-.38,0-.77.18-1.01.51l-.07.1-3.21,4.45-.61.86-1.37,1.93-.22.31-.39-.22-.04-.02-1.9-1.07-.08-.04-1.56-.88c-.63-.35-1.44-.32-2.05.15l-.06.05c-3.12,2.4-6.41,4.55-9.81,6.39-2.46,1.3-5,2.45-7.62,3.3-1.01.33-2.04.62-3.08.85-3.72.86-7.58,1.04-11.4.53-1.57-.2-3.13-.52-4.67-.92-1.66-.43-3.3-.95-4.92-1.55-.56-.21-1.11-.42-1.67-.64-.77-.31-1.53-.63-2.29-.96-.45-.19-.89-.39-1.34-.59-1.65-.74-3.29-1.51-4.95-2.29-.59-.28-1.18-.56-1.77-.83-.2-.09-.4-.19-.6-.28-1.01-.47-2.03-.93-3.07-1.38-1.46-.64-2.95-1.24-4.48-1.76-1.29-.44-2.61-.83-3.95-1.13-.58-.13-1.17-.23-1.76-.32-.77-.11-1.54-.18-2.32-.21-.7-.03-1.41-.02-2.11.03-.09,0-.18.02-.28.03-1.31.13-2.59.39-3.83.78-.64.2-1.28.43-1.89.7-1.19.53-2.3,1.19-3.36,1.91-1.18.81-2.29,1.72-3.33,2.7-.98.93-1.91,1.9-2.78,2.92,1.86-1.87,3.89-3.6,6.12-4.97,1.17-.72,2.38-1.34,3.66-1.82.52-.19,1.05-.36,1.59-.5,1.36-.36,2.76-.56,4.16-.59,1.65,0,3.29.2,4.89.57.3.07.6.13.89.22,1.66.46,3.28,1.07,4.87,1.76,1.15.5,2.28,1.04,3.41,1.61.87.44,1.75.9,2.61,1.36.32.17.64.35.97.52,1.06.57,2.12,1.14,3.18,1.71,2.18,1.17,4.39,2.32,6.68,3.34.61.28,1.23.54,1.86.8,3.18,1.33,6.51,2.42,9.99,3.02.96.17,1.93.3,2.91.39,1.18.11,2.36.16,3.55.15,2.07-.01,4.15-.21,6.19-.58,4.19-.75,8.2-2.25,11.9-4.22,1.84-1,3.63-2.08,5.32-3.3,1.37-.94,2.68-1.96,3.97-3l4.32,2.2.09.05c.61.31,1.33.22,1.85-.19.15-.12.29-.27.4-.45l2.86-4.68,2.49-4.16,1.25-.11,4.73-.43,6.73-.64,6.73-.64,6.73-.69-4.47-.06v.03Z"></path><path class="st0" d="M86.56,14.2c-.41-.12-1-.13-1.46-.13h-1.1l-.71,3.85h.59c.66,0,1.38.01,2.02-.17.88-.27,1.55-1,1.71-1.86.15-.83-.24-1.47-1.05-1.7h0Z"></path><path class="st0" d="M117.46,14.58c-.54-.47-1.15-.5-2.03-.5h-1.5l-.82,4.43h1.39c1.09,0,1.91-.22,2.43-.64.54-.44.89-1.01,1.01-1.65.12-.67-.05-1.28-.47-1.63h-.01Z"></path><path class="st0" d="M100.89,13.76c-2.97,0-5.84,2.45-6.39,5.45-.27,1.45.07,2.87.93,3.91.82.98,2.01,1.52,3.35,1.52,2.92,0,5.85-2.53,6.41-5.52.27-1.48-.04-2.85-.88-3.86-.81-.97-2.02-1.5-3.41-1.5h-.01Z"></path><polygon class="st0" points="51.95 13.96 48.62 20.34 52.93 20.34 51.99 13.96 51.95 13.96"></polygon><path class="st0" d="M31.51,12.72c-4.31,0-6.94,3.77-7.43,6.42-.51,2.73.77,6.43,5.05,6.43s6.94-3.74,7.42-6.36c.55-2.95-.89-6.49-5.04-6.49Z"></path><path class="st0" d="M1.2,1.2c-.04.15-.16.31-.12.51l.05,36.16c3.17.6,6.44,1.06,9.67,1.37,31.27,3.05,63.26-1.93,94.52-3.45,16.34-.79,31.53-.55,47.79,1.27.56.06,1.16.1,1.73.11V1.37L1.2,1.2ZM18.45,27.49h-2.43l2.68-14.45h-3.2l.41-2.23h8.84l-.41,2.23h-3.2l-2.68,14.45h0ZM28.72,27.8c-4.98,0-7.92-4.08-7.08-8.66.84-4.53,5.19-8.66,10.28-8.66s7.95,3.95,7.07,8.7c-.84,4.55-5.32,8.61-10.28,8.61h.01ZM38.92,27.49l2.68-14.45h-3.2l.41-2.23h8.84l-.41,2.23h-3.2l-2.68,14.45h-2.44ZM54.29,27.49l-.94-4.92h-6l-2.76,4.92h-2.57l9.43-16.68h2.19l3.24,16.68h-2.59ZM65.75,27.49h-8.23l3.09-16.68h2.43l-2.68,14.45h5.79l-.41,2.23h.01ZM71.59,28.14c-1.53,0-2.91-.61-3.79-1.67-.84-1.01-1.16-2.33-.9-3.72l.04-.2h3.74l-.06.3c-.09.49,0,.92.26,1.23.3.36.82.56,1.43.56,1.1,0,2.11-.83,2.31-1.89.28-1.53-.79-2.03-2.22-2.53-1.02-.36-1.99-.69-2.72-1.62-.7-.88-.99-2.19-.76-3.4.51-2.77,3.17-4.94,6.04-4.94,1.35,0,2.59.56,3.4,1.55.79.96,1.09,2.2.84,3.49l-.04.2h-3.68l.04-.29c.06-.4-.03-.76-.26-1.02-.24-.28-.61-.43-1.04-.43-.85,0-1.58.65-1.72,1.55-.19.92.46,1.35,1.56,1.75l.3.11c1.02.37,1.98.72,2.75,1.48,1.07,1,1.44,2.31,1.13,4.01-.56,3.02-3.54,5.48-6.64,5.48h0ZM88.33,20.37c-1.4.98-3.03,1.06-4.58,1.06h-1.1l-1.17,6.31h-3.6l3.18-17.16h4.73c1.48,0,2.79.07,3.9.93,1.27.97,1.85,2.67,1.53,4.44-.33,1.77-1.38,3.38-2.88,4.42h-.01ZM98.22,28.14c-2.37,0-4.44-.92-5.83-2.59-1.41-1.7-1.94-3.96-1.5-6.36.44-2.4,1.78-4.65,3.77-6.33,1.98-1.68,4.39-2.6,6.77-2.6s4.43.91,5.81,2.57c1.42,1.71,1.95,4,1.5,6.45-.91,4.89-5.63,8.86-10.53,8.86h.01ZM121.55,16.15c-.24,1.29-1.11,2.84-2.12,3.77-.85.77-1.85,1.29-3.04,1.59l3.41,6.23h-4.39l-2.91-5.91-1.1,5.91h-3.6l3.18-17.16h5.03c1.69.02,3.17.13,4.29,1.25,1.07,1.05,1.55,2.71,1.25,4.33h0ZM126.18,27.74h-3.6l2.53-13.66h-3.07l.65-3.5h9.78l-.65,3.5h-3.11s-2.53,13.66-2.53,13.66ZM142.39,15.29l-.04.2h-3.67l.04-.29c.06-.4-.03-.76-.26-1.02-.24-.28-.61-.43-1.04-.43-.85,0-1.58.65-1.72,1.55-.19.92.46,1.35,1.56,1.75l.3.11c1.02.37,1.98.72,2.75,1.48,1.07,1,1.44,2.31,1.13,4.01-.56,3.02-3.54,5.48-6.63,5.48-1.53,0-2.91-.61-3.79-1.67-.84-1.01-1.16-2.33-.9-3.72l.04-.2h3.73l-.06.3c-.09.49,0,.92.26,1.24.3.36.82.56,1.43.56,1.1,0,2.11-.83,2.31-1.89.28-1.53-.79-2.03-2.22-2.53-1.02-.36-1.99-.69-2.72-1.62-.7-.88-.99-2.19-.76-3.4.51-2.77,3.17-4.94,6.04-4.94,1.35,0,2.59.56,3.4,1.55.79.96,1.09,2.2.84,3.49h-.02Z"></path><path class="st0" d="M155.91,142.7H0V0h155.91v142.7ZM2.4,140.3h151.11V2.4H2.4v137.91h0Z"></path><path class="st0" d="M92.95,132.73c-.12-.09-.26-.13-.44-.13s-.31.04-.41.12c-.11.08-.18.2-.24.34-.05.15-.08.32-.08.51s.03.36.08.51.13.26.24.34.25.12.43.12.31-.04.43-.13c.11-.09.19-.2.25-.35s.08-.31.08-.49-.03-.34-.08-.49c-.06-.15-.14-.26-.26-.35h0Z"></path><path class="st0" d="M79.96,133.26c-.02-.19-.07-.34-.15-.45-.11-.15-.29-.22-.53-.22-.27,0-.47.08-.61.25-.08.11-.14.25-.17.42h1.46Z"></path><path class="st0" d="M85.41,133.26c-.02-.19-.07-.34-.15-.45-.11-.15-.29-.22-.53-.22-.27,0-.47.08-.61.25-.08.11-.14.25-.17.42h1.46Z"></path><path class="st0" d="M88.43,132.72c-.11-.08-.24-.12-.41-.12-.18,0-.32.04-.44.13-.12.09-.2.2-.26.35-.06.15-.08.31-.08.49s.03.35.08.49.14.26.25.35c.11.09.25.13.43.13s.32-.04.43-.12.19-.2.24-.34c.05-.15.08-.32.08-.51s-.03-.36-.08-.51-.13-.26-.24-.34h0Z"></path><path class="st0" d="M71.65,132.63c-.18,0-.32.04-.44.12-.11.08-.2.19-.25.33-.06.14-.08.31-.08.49,0,.29.07.52.2.69s.32.26.58.26.46-.09.59-.26c.13-.18.19-.4.19-.68s-.07-.52-.2-.69-.33-.26-.59-.26h0Z"></path><path class="st0" d="M68.69,132.73c-.12-.09-.26-.13-.44-.13s-.31.04-.41.12c-.11.08-.18.2-.24.34s-.08.32-.08.51.03.36.08.51.13.26.24.34.25.12.43.12.31-.04.43-.13.19-.2.25-.35.08-.31.08-.49-.03-.34-.08-.49c-.06-.15-.14-.26-.26-.35h0Z"></path><path class="st0" d="M154.83,140.99l-.05-18.19c-3.17-.6-6.44-1.06-9.67-1.37-31.27-3.05-63.26,1.93-94.52,3.45-16.34.79-31.53.55-47.79-1.27-.56-.06-1.16-.1-1.72-.11v17.83l153.64.17c.04-.15.16-.31.12-.51h0ZM69.56,134.38c-.11.24-.27.42-.47.56-.2.14-.44.21-.72.21s-.53-.07-.73-.21c-.01,0-.02-.02-.04-.03v1.47h-.67v-4.29h.59v.22s.07-.06.11-.09c.19-.14.43-.2.71-.2s.52.07.73.2c.21.14.37.32.48.56s.17.5.17.81-.06.56-.17.8h.01ZM72.95,134.39c-.12.24-.3.42-.52.55-.22.13-.48.2-.78.2s-.56-.07-.78-.2c-.22-.13-.39-.32-.52-.55-.12-.24-.18-.51-.18-.81s.06-.59.19-.82c.12-.23.3-.42.52-.55.22-.13.48-.2.77-.2s.56.07.78.2.39.32.52.55c.12.24.18.51.18.81s-.06.58-.19.82h.01ZM76.64,135.06h-.52l-.67-2.04-.67,2.04h-.52l-.91-2.98h.65l.58,1.91.59-1.91h.56l.59,1.91.58-1.91h.65l-.91,2.97h0ZM80.63,133.76h-2.15c.02.21.08.39.19.51.13.17.32.25.58.25.16,0,.3-.04.42-.11.12-.07.21-.18.27-.31l.66.2c-.11.27-.29.48-.53.62-.24.15-.5.22-.79.22s-.57-.07-.79-.2c-.23-.13-.4-.31-.53-.54s-.19-.5-.19-.8c0-.32.06-.61.19-.85.12-.24.3-.43.52-.56.22-.13.48-.2.77-.2.31,0,.57.07.79.22.22.14.38.35.48.61.1.26.14.57.12.93h-.01ZM82.92,132.71c-.09-.03-.19-.03-.3-.02-.11,0-.22.04-.31.1-.09.05-.17.11-.22.19-.06.08-.1.16-.13.26-.03.1-.04.2-.04.32v1.51h-.67v-2.97h.59v.48s.05-.08.08-.12c.06-.08.14-.15.22-.2.07-.05.15-.09.24-.12s.18-.05.27-.05.18,0,.27,0v.62h0ZM86.09,133.76h-2.15c.02.21.08.39.19.51.13.17.32.25.58.25.16,0,.3-.04.42-.11.12-.07.21-.18.27-.31l.66.2c-.11.27-.29.48-.53.62-.24.15-.5.22-.79.22s-.57-.07-.79-.2c-.23-.13-.41-.31-.53-.54-.13-.23-.19-.5-.19-.8,0-.32.06-.61.19-.85.12-.24.3-.43.52-.56.22-.13.48-.2.77-.2.31,0,.57.07.79.22.22.14.38.35.48.61.1.26.14.57.12.93h-.01ZM89.33,135.06h-.59v-.22s-.08.07-.12.1c-.2.14-.44.21-.73.21-.27,0-.51-.07-.72-.21s-.36-.32-.47-.56-.17-.5-.17-.8.06-.57.17-.81c.11-.24.27-.42.48-.56.21-.14.45-.2.73-.2s.52.07.71.2c.01,0,.02.02.03.02v-1.14h.67v3.96h.01ZM93.82,134.38c-.11.24-.27.42-.47.56s-.44.21-.72.21-.53-.07-.73-.21c-.04-.03-.08-.06-.12-.1v.22h-.59v-3.96h.67v1.14s.02-.02.03-.02c.19-.14.43-.2.71-.2s.52.07.73.2c.21.14.37.32.48.56s.17.5.17.81-.06.56-.17.8h.01ZM95.4,136.38h-.62l.49-1.34-1.2-2.95h.69l.83,2.13.81-2.13h.66l-1.66,4.29ZM111.26,137.05c-.16.06-.82.23-.95.23h-9.88v-1.58h9.62c.16,0,.69-.19.82-.3.25-.23.28-.79.07-1.05-.1-.12-.62-.36-.76-.36h-9.75v-1.58h9.49s.46-.07.51-.08c.67-.16.93-1.08.29-1.44-.07-.04-.42-.18-.47-.18h-9.81v-1.58h10.01c.15,0,.6.15.77.21,1.73.61,2.18,2.52.97,3.88,1.25,1.23.7,3.24-.92,3.82h-.01ZM120.19,134.16l-.1.1h-3.28c-.2,0-.85-.12-1.05-.19-.44-.15-.69-.43-.84-.87-.07-.23-.18-.78-.18-1v-3.05h1.84v2.72c0,.29.4.75.69.75h2.82l.1.1v1.44h0ZM128.46,132.59c0,.16-.2.79-.3.95-.06.09-.27.3-.36.36-.42.29-1.28.34-1.8.37-.96.05-1.96-.04-2.92,0v3.02h-2.17v-4.56l.1-.1h4.99c.23,0,.62-.39.62-.62v-2.86h1.84v3.45h0ZM142.69,134.28c-.69,2.49-3.1,2.93-5.33,3.01-2.33.08-4.67-.07-6.99,0v-1.58c2.15-.05,4.32.07,6.47,0,.89-.03,2.12-.02,2.92-.43,1.22-.61,1.68-2.08.97-3.27-.62-1.03-1.87-1.24-2.97-1.29-2.42-.13-4.96.1-7.39,0v-1.58h7.78c2.83-.02,5.38,2.13,4.54,5.14h0Z"></path></g></svg>