<svg xmlns="http://www.w3.org/2000/svg" width="624.059" height="162.748" viewBox="0 0 624.059 162.748">
  <g id="Group_788" data-name="Group 788" transform="translate(-4778.032 826.807)">
    <path id="Path_115" data-name="Path 115" d="M-321.069-76.821a73.309,73.309,0,0,0,.92-9.754c0-27.053-18.4-48.4-47.665-48.4-30.55,0-55.026,24.845-55.026,56.682,0,27.605,18.035,45.824,48.217,45.824,19.323,0,35.15-7.545,44.9-20.06l-21.164-11.042c-7.177,6.073-14.171,9.018-23.925,9.018-15.091,0-23.74-9.018-24.292-22.268ZM-395.6-94.3c4.969-11.962,14.907-18.587,26.5-18.587,11.778,0,20.612,6.257,24.292,18.587Zm146.859,59.443H-225l12.7-97.722h-23.924l-1.84,13.619a33.38,33.38,0,0,0-29.077-16.2c-28.341,0-52.45,25.4-52.45,55.394,0,25.765,16.747,47.481,42.328,47.481,12.882,0,20.8-4.6,29.813-13.066Zm-23-18.771c-14.354,0-24.108-10.122-24.108-25.581,0-20.244,13.8-33.862,30.55-33.862,15.091,0,24.477,11.042,24.477,25.765C-240.83-70.748-252.056-53.633-271.748-53.633Zm51.714,2.945c11.778,12.514,21.532,18.219,35.887,18.219,21.716,0,34.966-15.091,34.966-30.182,0-17.483-13.434-25.581-30.734-38.279-2.208-1.656-4.233-4.049-4.233-6.625,0-3.129,3.5-5.521,7.913-5.521,6.073,0,12.7,4.049,18.219,12.33l11.41-18.219c-7.361-10.674-18.4-16.2-30-16.2-17.483,0-31.286,11.778-31.286,27.789,0,16.563,13.619,24.661,29.813,36.807,2.944,2.208,5.153,5.153,5.153,8.1,0,4.417-4.233,7.913-10.306,7.913-7.545,0-15.459-4.6-22.084-13.434Zm100.85,2.576L-146.973.841h25.4l76.742-133.425H-70.6l-33.494,57.971-18.956-57.971h-23.74Zm93.857-84.471H-46.859l-12.7,97.722h24.109l4.6-36.807c3.313-26.5,9.2-40.487,20.98-40.487a23.431,23.431,0,0,1,4.049.368L2.831-133.5a15.325,15.325,0,0,0-6.809-1.656c-9.386,0-16.931,5.521-23.188,15.827ZM92.455-76.821a73.35,73.35,0,0,0,.92-9.754c0-27.053-18.4-48.4-47.665-48.4-30.55,0-55.026,24.845-55.026,56.682,0,27.605,18.035,45.824,48.217,45.824,19.323,0,35.151-7.545,44.9-20.06L62.642-63.571c-7.177,6.073-14.171,9.018-23.924,9.018-15.091,0-23.741-9.018-24.292-22.268ZM17.921-94.3c4.969-11.962,14.907-18.587,26.5-18.587,11.778,0,20.612,6.257,24.292,18.587Zm157.717-26.685c-7.914-9.2-16.195-14.171-28.157-14.171-28.341,0-53.37,24.661-53.37,54.842,0,26.317,18.219,45.456,42.144,45.456,11.226,0,20.98-3.865,29.629-11.594-2.576,17.851-11.042,27.605-29.629,27.605-10.122,0-17.851-3.313-24.109-9.938L91.535-17.93c7.545,12.7,23.188,21.164,43.984,21.164,16.011,0,28.709-4.049,38.279-13.066,13.435-12.514,14.355-26.685,16.747-44.536l10.674-78.214H177.111Zm-27.053,8.834c15.091,0,24.477,10.306,24.477,23.556,0,17.483-12.882,31.654-30.917,31.654-14.539,0-24.292-9.2-24.292-23.924C117.852-97.985,130.734-112.156,148.585-112.156Z" transform="translate(5200.872 -682.873)" fill="#fff"/>
    <path id="Path_151" data-name="Path 151" d="M29.512,0,46.056,51.31H0Z" transform="translate(5128.259 -775.497) rotate(180)" fill="#2897ee"/>
    <text id="_.co.za" data-name=".co.za" transform="translate(5151.78 -675.059)" fill="#fff" font-size="43" font-family="Roboto-Regular, Roboto"><tspan x="0" y="0">.co.za</tspan></text>
  </g>
</svg>
