<svg xmlns="http://www.w3.org/2000/svg" width="503.551" height="234.067" viewBox="0 0 503.551 234.067">
  <g id="Group_787" data-name="Group 787" transform="translate(-920.051 -165.644)">
    <path id="Path_294" data-name="Path 294" d="M80.968,47.256A43.334,43.334,0,0,0,82.1,56.98a155.348,155.348,0,0,0,25.337,5.8,25.03,25.03,0,0,1-5.191-15.409c0-13.791,10.521-24.2,23.15-24.2s22.681,10.408,22.681,24.2a25.672,25.672,0,0,1-4.763,15.116c3.683-.607,7.344-1.388,10.96-2.351a127.408,127.408,0,0,0,14.41-4.725,43.394,43.394,0,0,0,.788-8.156c0-23.733-18.941-41.5-44.316-41.5-25.246,0-44.184,17.654-44.184,41.5" transform="translate(1033.481 159.906)" fill="#e85c15"/>
    <path id="Path_296" data-name="Path 296" d="M48.611,97.474l4.9,12.667H43.63Zm-4.2-8.66-14.77,34.239h8.948l2.5-6.31H56.049l2.447,6.31h9.292L53.36,88.814Z" transform="translate(961.57 276.266)" fill="#fff"/>
    <path id="Path_297" data-name="Path 297" d="M74.785,106.574h-6.6V95.664h6.6c3.767,0,5.969,1.81,5.969,5.378,0,3.621-2.2,5.532-5.969,5.532m8.024,5.184c4.012-2.007,6.211-5.774,6.211-11.006,0-7.635-5.184-11.937-14.235-11.937H59.477v34.239h8.708v-9.64h6.847l5.085,9.64H90Z" transform="translate(1003.373 276.266)" fill="#fff"/>
    <path id="Path_298" data-name="Path 298" d="M104.3,97.474l4.893,12.667h-9.88Zm-4.2-8.66L85.324,123.053h8.953l2.5-6.31h14.965l2.447,6.31h9.292L109.055,88.814Z" transform="translate(1039.583 276.266)" fill="#fff"/>
    <path id="Path_299" data-name="Path 299" d="M161.6,88.814V102.9H147.416V88.814H138.71v34.239h8.706v-13.3H161.6v13.3h8.708V88.814Z" transform="translate(1114.372 276.266)" fill="#fff"/>
    <path id="Path_300" data-name="Path 300" d="M219.851,88.814v21.13l-15.8-21.13h-7.681v34.239h8.168V101.971L220.3,123.053h7.678V88.814Z" transform="translate(1195.156 276.266)" fill="#fff"/>
    <path id="Path_301" data-name="Path 301" d="M28.127,88.794l-9.294,20.4-9.292-20.4H0v34.287H7.779V100.827L16,119.658h5.676l8.216-18.83.046,22.254h7.681V88.794Z" transform="translate(920.052 276.238)" fill="#fff"/>
    <path id="Path_302" data-name="Path 302" d="M112.353,88.794v7.042h10.223v27.246h8.708V95.836H141.6V88.794Z" transform="translate(1077.449 276.238)" fill="#fff"/>
    <path id="Path_303" data-name="Path 303" d="M185,116.329a9.958,9.958,0,0,1-9.683-10.223A9.843,9.843,0,0,1,185,95.979c5.282,0,9.493,4.358,9.493,10.127s-4.211,10.223-9.493,10.223m-.1-27.637c-10.564,0-18.487,7.385-18.487,17.363,0,10.029,7.923,17.56,18.487,17.56,10.612,0,18.537-7.58,18.537-17.56,0-9.928-7.925-17.363-18.537-17.363" transform="translate(1153.182 276.095)" fill="#fff"/>
    <path id="Path_304" data-name="Path 304" d="M74.524,46.292V128.13h65.355V111.763H95.338V95.278h39.044V78.913H95.338V62.661H138.59V46.292Z" transform="translate(1024.453 216.696)" fill="#fff"/>
    <path id="Path_305" data-name="Path 305" d="M137.123,97.263l11.925-30.276,11.69,30.276Zm23.265-50.971H139l-35.31,81.838h21.395l5.961-15.083h35.774l5.846,15.083h22.213Z" transform="translate(1065.309 216.696)" fill="#fff"/>
    <path id="Path_306" data-name="Path 306" d="M200.947,46.292V96.8L163.188,46.292h-18.36V128.13h19.524V77.744L202,128.13h18.355V46.292Z" transform="translate(1122.943 216.696)" fill="#fff"/>
    <path id="Path_307" data-name="Path 307" d="M44.456,112.052c-12.509,0-23.145-10.636-23.145-24.434s10.523-24.2,23.145-24.2S67.14,73.824,67.14,87.617s-10.055,24.434-22.684,24.434M44.226,46C18.973,46,.032,63.654.032,87.5c0,23.968,18.941,41.97,44.194,41.97,25.368,0,44.309-18.122,44.309-41.97,0-23.728-18.941-41.5-44.309-41.5" transform="translate(920.096 216.287)" fill="#fff"/>
    <path id="Path_308" data-name="Path 308" d="M38.6,87.388c0,23.964,18.353,42.086,43.024,42.086,12.038,0,25.015-5.961,33.781-14.965l-12.156-12.859c-5.729,5.846-13.678,9.587-20.581,9.587-12.975,0-22.792-10.4-22.792-24.084,0-13.443,9.817-23.733,22.792-23.733,7.253,0,15.2,4.089,20.581,10.643L115.287,59.8A47.525,47.525,0,0,0,82.32,46C57.416,46,38.6,63.773,38.6,87.388" transform="translate(974.12 216.289)" fill="#fff"/>
    <path id="Path_309" data-name="Path 309" d="M185.544,70.569c0,29,43.257,20.345,43.257,34.837,0,4.677-4.091,7.133-10.638,7.133-8.535,0-21.164-4.907-29.582-12.271l-8.065,16.009c9.7,7.954,23.733,13.095,37.409,13.095,18.237,0,32.736-8.65,32.736-25.015,0-29.579-43.257-21.512-43.257-35.654,0-3.981,3.625-5.964,9-5.964,6.663,0,17.536,3.508,26.187,8.533l7.834-16.252c-8.418-5.493-20.458-9.116-32.263-9.116-19.647,0-32.619,9.584-32.619,24.665" transform="translate(1172.94 216.153)" fill="#fff"/>
    <path id="Path_310" data-name="Path 310" d="M157.823,33.465c-7.594,1.858-14.986,4.708-21.243,9.147,14.862-3.652,29.363-3.148,43.762-1.092,14.417,2.029,28.787,5.51,43.661,8.257,14.828,2.718,30.35,4.874,46.136,3.32a75.928,75.928,0,0,0,22.945-5.813A57.639,57.639,0,0,0,312.024,33.9a85.729,85.729,0,0,1-20.943,7.157,95.128,95.128,0,0,1-21.356,1.573c-14.3-.447-28.643-3.277-43.305-5.952s-29.755-5.409-45.329-5.573c-.271,0-.545,0-.819,0a98.18,98.18,0,0,0-22.449,2.362" transform="translate(1111.388 195.418)" fill="#fff"/>
    <path id="Path_311" data-name="Path 311" d="M68.148,57.556H89.542L93.97,44.137C91.5,43.1,89.031,42.048,86.6,40.946c-9.08-4.074-17.832-8.631-26.48-13.255Z" transform="translate(1004.28 190.638)" fill="#fff"/>
    <path id="Path_312" data-name="Path 312" d="M24.688,17.833a84.432,84.432,0,0,0-14.511,7.236V74.132H30.983V15.859c-2.122.564-4.228,1.2-6.3,1.974" transform="translate(934.308 174.062)" fill="#fff"/>
    <path id="Path_313" data-name="Path 313" d="M52.882,74.16h21.51l9.993-36.633c-1.28-.682-2.557-1.378-3.834-2.058-3.448-1.827-6.9-3.637-10.367-5.392L64.342,52.537,56.668,23.69a144.524,144.524,0,0,0-19.32-7c-1.176-.324-2.363-.581-3.546-.855Z" transform="translate(967.405 174.035)" fill="#fff"/>
    <path id="Path_314" data-name="Path 314" d="M30.6,6.046,33.93,16.233a101.022,101.022,0,0,1,10.2.624,117.047,117.047,0,0,1,12.127,2.151L52.809,6.046Z" transform="translate(962.917 160.315)" fill="#fff"/>
    <path id="Path_315" data-name="Path 315" d="M56.106,6.046,50.862,26.2c4.238,1.618,8.418,3.335,12.533,5.092.761.329,1.505.665,2.262.994l.605.264c6.586,2.869,13.095,5.808,19.548,8.694l-9.361-35.2Z" transform="translate(991.305 160.315)" fill="#fff"/>
    <path id="Path_316" data-name="Path 316" d="M80.942,6.046l-10.59,40.4C73.677,47.875,77,49.274,80.337,50.6q3.176,1.268,6.37,2.442l15.512-47Z" transform="translate(1018.609 160.315)" fill="#fff"/>
    <path id="Path_317" data-name="Path 317" d="M0,6V22.832H24.434V34.107A105.162,105.162,0,0,1,38.081,25.66a86.356,86.356,0,0,1,23.647-8.122,72.523,72.523,0,0,1,8.185-1.025V6Z" transform="translate(920.051 160.247)" fill="#fff"/>
    <path id="Path_318" data-name="Path 318" d="M485.52,6.153l-9.073-.113L449.641,5.9l-26.8-.142-26.8-.01a4.977,4.977,0,0,0-4,2.043l-.279.387L379.018,25.811l-2.43,3.431-5.424,7.647-.879,1.244-1.541-.867-.173-.1-7.522-4.235-.317-.178-6.19-3.484a7.365,7.365,0,0,0-8.11.583l-.25.192a290.346,290.346,0,0,1-38.895,25.334,191.3,191.3,0,0,1-30.223,13.087c-4.017,1.309-8.081,2.459-12.2,3.385a127.122,127.122,0,0,1-45.192,2.108,150.5,150.5,0,0,1-18.525-3.645,200.832,200.832,0,0,1-19.512-6.163q-3.32-1.221-6.612-2.538c-3.037-1.22-6.06-2.516-9.08-3.825q-2.661-1.152-5.316-2.346c-6.538-2.932-13.063-5.978-19.615-9.068q-3.508-1.657-7.032-3.311c-.79-.372-1.575-.744-2.367-1.114-4.017-1.861-8.067-3.707-12.163-5.491-5.808-2.533-11.714-4.91-17.752-6.979a142.475,142.475,0,0,0-15.685-4.475c-2.307-.5-4.643-.915-6.991-1.251a87.607,87.607,0,0,0-9.21-.836,77.358,77.358,0,0,0-8.374.127c-.365.029-.727.1-1.092.134a74.216,74.216,0,0,0-15.2,3.109,70.6,70.6,0,0,0-7.493,2.787,86.021,86.021,0,0,0-13.318,7.58,109.606,109.606,0,0,0-13.224,10.71A154.113,154.113,0,0,0,.072,58.934a134.379,134.379,0,0,1,24.261-19.7A84.519,84.519,0,0,1,38.844,32c2.07-.768,4.175-1.409,6.3-1.971a69.926,69.926,0,0,1,16.5-2.331,84.247,84.247,0,0,1,19.4,2.278c1.184.279,2.372.535,3.546.86a144.269,144.269,0,0,1,19.32,6.994c4.55,1.983,9.049,4.13,13.517,6.391,3.469,1.753,6.922,3.563,10.367,5.39,1.275.677,2.557,1.376,3.832,2.058q6.288,3.374,12.617,6.766c8.65,4.627,17.4,9.181,26.48,13.258,2.43,1.1,4.893,2.156,7.368,3.191a185.636,185.636,0,0,0,39.6,11.976c3.813.677,7.673,1.181,11.548,1.541q7,.648,14.079.607a140.7,140.7,0,0,0,24.554-2.312,160.632,160.632,0,0,0,47.192-16.746,200.141,200.141,0,0,0,21.092-13.068C341.612,53.146,346.8,49.108,351.9,45l17.121,8.725.367.19a6.839,6.839,0,0,0,7.344-.768,6.929,6.929,0,0,0,1.58-1.772l11.332-18.564,9.87-16.509,4.948-.442,18.754-1.688L449.9,11.632,476.584,9.1l26.674-2.725Z" transform="translate(920.152 159.896)" fill="#459634"/>
  </g>
</svg>
