<svg id="Group_786" data-name="Group 786" xmlns="http://www.w3.org/2000/svg" xmlns:xlink="http://www.w3.org/1999/xlink" width="463.036" height="423.803" viewBox="0 0 463.036 423.803">
  <defs>
    <clipPath id="clip-path">
      <rect id="Rectangle_1" data-name="Rectangle 1" width="463.036" height="423.803" fill="none"/>
    </clipPath>
  </defs>
  <g id="Group_1" data-name="Group 1" clip-path="url(#clip-path)">
    <path id="Path_1" data-name="Path 1" d="M65.13,81.864a32.325,32.325,0,0,0,.832,7.276,116.678,116.678,0,0,0,18.978,4.336,18.8,18.8,0,0,1-3.891-11.553c0-10.335,7.87-18.116,17.344-18.116s16.988,7.781,16.988,18.116a19.22,19.22,0,0,1-3.564,11.315c2.762-.445,5.494-1.039,8.2-1.752a99.362,99.362,0,0,0,10.781-3.534,31.662,31.662,0,0,0,.594-6.118c0-17.76-14.2-31.095-33.174-31.095S65.13,63.956,65.13,81.835" transform="translate(128.299 99.952)" fill="#fff"/>
    <path id="Path_2" data-name="Path 2" d="M83.616,206.285l3.653,9.474h-7.4l3.742-9.474m-3.148-6.474L69.42,225.44h6.712L78,220.718H89.2l1.841,4.722h6.95l-10.81-25.63Zm49.122,5.138h4.93c2.821,0,4.455,1.366,4.455,4.039s-1.663,4.128-4.455,4.128h-4.93Zm-6.534-5.138v25.63h6.534v-7.217h5.138l3.8,7.217h7.4l-5.375-8.464c3-1.515,4.663-4.336,4.663-8.256,0-5.732-3.891-8.939-10.662-8.939H123.056Zm60.7,6.474,3.653,9.474h-7.4l3.742-9.474m-3.148-6.474-11.078,25.63h6.712l1.871-4.722h11.2l1.841,4.722h6.95l-10.81-25.63h-6.682Zm102.045,0v10.543H272.025V199.81h-6.534v25.63h6.534v-9.949h10.632v9.949h6.534V199.81Zm104.124,0v15.83l-11.82-15.83H369.2v25.63h6.118v-15.8l11.79,15.8h5.762V199.81ZM37.2,199.781l-6.95,15.265L23.3,199.781H16.14v25.69h5.821V208.809l6.148,14.107h4.247L38.5,208.809V225.47h5.791v-25.69Zm180.926,0v5.286h7.662v20.4h6.534v-20.4h7.722v-5.286Zm103.887,12.86a7.352,7.352,0,0,1,7.247-7.573,7.251,7.251,0,0,1,7.1,7.573c0,4.306-3.148,7.662-7.1,7.662a7.431,7.431,0,0,1-7.247-7.662m-6.682-.03c0,7.514,5.94,13.157,13.84,13.157s13.869-5.672,13.869-13.157S337.1,199.6,329.166,199.6s-13.84,5.524-13.84,13.008M150.111,123.365v61.3h48.944V172.4H165.7V160.043h29.253V147.778H165.7V135.6h32.4V123.336H150.111Zm86.424,15.5,8.761,22.66H227.626l8.939-22.66Zm-7.544-15.5-26.432,61.3h16.008l4.455-11.286h26.788l4.366,11.286h16.631l-25.838-61.3H228.992Zm89.572,0V161.2L290.29,123.365H276.54v61.3h14.612V146.946l28.184,37.718h13.751v-61.3ZM32.118,154.015c0-10.335,7.87-18.116,17.344-18.116s16.988,7.781,16.988,18.116-7.544,18.294-16.988,18.294-17.344-7.959-17.344-18.294M16.2,153.925c0,17.938,14.2,31.421,33.085,31.421s33.174-13.572,33.174-31.421-14.2-31.095-33.174-31.095S16.2,136.047,16.2,153.925m69.317-.089c0,17.938,13.751,31.511,32.223,31.511,9.028,0,18.74-4.455,25.3-11.2l-9.118-9.622c-4.277,4.366-10.246,7.187-15.414,7.187-9.712,0-17.077-7.781-17.077-18.027s7.365-17.76,17.077-17.76c5.435,0,11.375,3.059,15.414,7.959l9.028-10.692a35.615,35.615,0,0,0-24.68-10.335c-18.651,0-32.758,13.305-32.758,31.006m258.945-12.741c0,21.71,32.4,15.236,32.4,26.076,0,3.5-3.059,5.346-7.959,5.346-6.385,0-15.859-3.683-22.155-9.177l-6.029,12a45.583,45.583,0,0,0,28.006,9.8c13.661,0,24.5-6.474,24.5-18.74,0-22.155-32.4-16.1-32.4-26.7,0-2.97,2.7-4.455,6.742-4.455,4.989,0,13.127,2.614,19.6,6.385l5.88-12.177a45.88,45.88,0,0,0-24.175-6.831c-14.7,0-24.413,7.187-24.413,18.473m-66.852-43.3a46.507,46.507,0,0,0-15.919,6.86c11.137-2.732,21.977-2.346,32.758-.832,10.81,1.515,21.561,4.128,32.7,6.177,11.107,2.02,22.72,3.653,34.54,2.495a56.59,56.59,0,0,0,17.2-4.366,42.517,42.517,0,0,0,14.2-10.038,63.206,63.206,0,0,1-15.681,5.346,72.187,72.187,0,0,1-15.978,1.188c-10.721-.327-21.443-2.465-32.431-4.455-10.959-2.02-22.274-4.039-33.946-4.188h-.624a73.015,73.015,0,0,0-16.81,1.782M130.243,112.288h16.008l3.326-10.038c-1.841-.772-3.712-1.574-5.524-2.376-6.8-3.059-13.365-6.474-19.839-9.919l6,22.363h.03ZM45.3,70.115a65.025,65.025,0,0,0-10.87,5.405v36.738H50.026V68.63A43.519,43.519,0,0,0,45.3,70.115m45.885,42.172h16.1l7.484-27.442c-.95-.5-1.9-1.039-2.881-1.544-2.584-1.366-5.168-2.732-7.751-4.039l-4.366,16.81L94.04,74.481a106.527,106.527,0,0,0-14.463-5.227c-.891-.238-1.782-.445-2.643-.653l14.285,43.687Zm-20.047-61.3,2.495,7.633a65.414,65.414,0,0,1,7.633.475q4.588.579,9.088,1.6l-2.584-9.712Zm40.361,0-3.92,15.087c3.178,1.218,6.3,2.495,9.385,3.8.564.238,1.129.5,1.693.742l.445.208c4.93,2.138,9.8,4.336,14.642,6.5l-7.009-26.373H111.5Zm39.054,0-7.93,30.263q3.742,1.6,7.484,3.118c1.574.624,3.178,1.247,4.782,1.841l11.612-35.193H150.557ZM16.14,50.9V63.522H34.434v8.434a78.138,78.138,0,0,1,10.216-6.326,65.4,65.4,0,0,1,17.7-6.088,52.981,52.981,0,0,1,6.118-.772V50.9H16.14Z" transform="translate(31.735 100.267)" fill="#fff"/>
    <path id="Path_3" data-name="Path 3" d="M379.724,51.067l-6.8-.089-20.076-.119L332.77,50.74H312.694a3.742,3.742,0,0,0-3,1.515l-.208.3-9.533,13.216-1.812,2.554-4.069,5.732-.653.921-1.158-.653-.119-.059L286.5,71.084l-.238-.119-4.633-2.614a5.561,5.561,0,0,0-6.088.445l-.178.148a218.478,218.478,0,0,1-29.135,18.978,143.511,143.511,0,0,1-22.631,9.8c-3,.98-6.059,1.841-9.147,2.524a94.66,94.66,0,0,1-33.857,1.574,111.124,111.124,0,0,1-13.869-2.732,151.349,151.349,0,0,1-14.612-4.6c-1.663-.624-3.3-1.247-4.96-1.9-2.287-.921-4.544-1.871-6.8-2.851-1.336-.564-2.643-1.158-3.98-1.752-4.9-2.2-9.771-4.485-14.7-6.8-1.752-.832-3.5-1.663-5.257-2.465-.594-.267-1.188-.564-1.782-.832-3-1.4-6.029-2.762-9.118-4.1-4.336-1.9-8.761-3.683-13.305-5.227A112.714,112.714,0,0,0,80.478,65.2c-1.723-.386-3.475-.683-5.227-.95a66.723,66.723,0,0,0-6.89-.624,55.153,55.153,0,0,0-6.266.089c-.267,0-.535.059-.832.089a56.425,56.425,0,0,0-11.375,2.316A52.91,52.91,0,0,0,44.275,68.2,64.585,64.585,0,0,0,34.3,73.875a82.741,82.741,0,0,0-9.89,8.019,113.624,113.624,0,0,0-8.256,8.672,99.369,99.369,0,0,1,18.176-14.76A62.828,62.828,0,0,1,45.2,70.4c1.544-.564,3.118-1.069,4.722-1.485a52.77,52.77,0,0,1,12.355-1.752A64.483,64.483,0,0,1,76.8,68.856c.891.208,1.782.386,2.643.653A110.693,110.693,0,0,1,93.9,74.737c3.415,1.485,6.771,3.089,10.127,4.782,2.584,1.307,5.2,2.673,7.751,4.039.95.5,1.9,1.039,2.881,1.544l9.444,5.078c6.474,3.475,13.038,6.89,19.839,9.919,1.812.832,3.653,1.6,5.524,2.376a137.689,137.689,0,0,0,29.669,8.969q4.277.757,8.642,1.158a103.944,103.944,0,0,0,10.543.446,106.133,106.133,0,0,0,18.384-1.723,120.87,120.87,0,0,0,35.342-12.533,146.009,146.009,0,0,0,15.8-9.8c4.069-2.792,7.959-5.821,11.79-8.91l12.83,6.534.267.149a5.124,5.124,0,0,0,5.494-.564,5.181,5.181,0,0,0,1.188-1.336l8.494-13.9,7.4-12.355,3.712-.327,14.048-1.277,19.987-1.9,19.987-1.9,19.987-2.049-13.275-.178v.089Z" transform="translate(31.814 99.952)" fill="#fff"/>
    <path id="Path_4" data-name="Path 4" d="M93,14.456a17.22,17.22,0,0,0-4.336-.386H85.4L83.29,25.5h1.752a22.571,22.571,0,0,0,6-.5,7.316,7.316,0,0,0,5.079-5.524A4.122,4.122,0,0,0,93,14.426Z" transform="translate(164.072 27.716)" fill="#fff"/>
    <path id="Path_5" data-name="Path 5" d="M126.029,15.565c-1.6-1.4-3.415-1.485-6.029-1.485h-4.455L113.11,27.237h4.128c3.237,0,5.672-.653,7.217-1.9a8.263,8.263,0,0,0,3-4.9,5.008,5.008,0,0,0-1.4-4.841h-.03Z" transform="translate(222.814 27.736)" fill="#fff"/>
    <path id="Path_6" data-name="Path 6" d="M113.656,13.76c-8.821,0-17.344,7.276-18.978,16.186a14.047,14.047,0,0,0,2.762,11.612,12.713,12.713,0,0,0,9.949,4.514c8.672,0,17.374-7.514,19.037-16.394a13.717,13.717,0,0,0-2.613-11.464,12.867,12.867,0,0,0-10.127-4.455Z" transform="translate(185.976 27.106)" fill="#fff"/>
    <path id="Path_7" data-name="Path 7" d="M58.51,13.96,48.62,32.908h12.8L58.629,13.96Z" transform="translate(95.776 27.5)" fill="#fff"/>
    <path id="Path_8" data-name="Path 8" d="M46.355,12.72c-12.8,0-20.611,11.2-22.066,19.067-1.515,8.108,2.287,19.1,15,19.1S59.9,39.776,61.323,31.995C62.956,23.233,58.68,12.72,46.355,12.72" transform="translate(47.227 25.057)" fill="#fff"/>
    <path id="Path_9" data-name="Path 9" d="M1.452,1.2c-.119.445-.475.921-.356,1.515l.148,107.391c9.415,1.782,19.126,3.148,28.719,4.069,92.868,9.058,187.875-5.732,280.714-10.246,48.528-2.346,93.641-1.633,141.931,3.772,1.663.178,3.445.3,5.138.327V1.7ZM52.683,79.278H45.466l7.959-42.915h-9.5l1.218-6.623H71.393l-1.218,6.623h-9.5L52.713,79.278Zm30.5.921c-14.79,0-23.522-12.117-21.027-25.719,2.495-13.454,15.414-25.719,30.53-25.719s23.611,11.731,21,25.838c-2.495,13.513-15.8,25.571-30.53,25.571h.03Zm30.293-.921,7.959-42.915h-9.5l1.218-6.623H139.4l-1.218,6.623h-9.5l-7.959,42.915Zm45.647,0-2.792-14.612H138.513l-8.2,14.612h-7.633l28.006-49.538h6.5l9.622,49.538Zm34.035,0H168.716l9.177-49.538h7.217l-7.959,42.915h17.2l-1.218,6.623Zm17.344,1.93a14.457,14.457,0,0,1-11.256-4.96A13.157,13.157,0,0,1,196.574,65.2l.119-.594H207.8l-.178.891a4.318,4.318,0,0,0,.772,3.653,5.43,5.43,0,0,0,4.247,1.663A7.117,7.117,0,0,0,219.5,65.2c.832-4.544-2.346-6.029-6.593-7.514-3.029-1.069-5.91-2.049-8.078-4.811a12.8,12.8,0,0,1-2.257-10.1c1.515-8.227,9.415-14.671,17.938-14.671a12.912,12.912,0,0,1,10.1,4.6A12.324,12.324,0,0,1,233.1,43.075l-.119.594H222.056l.119-.861a3.645,3.645,0,0,0-.772-3.029,3.961,3.961,0,0,0-3.089-1.277,5.274,5.274,0,0,0-5.108,4.6c-.564,2.732,1.366,4.009,4.633,5.2l.891.327c3.029,1.1,5.88,2.138,8.167,4.4,3.178,2.97,4.277,6.86,3.356,11.909-1.663,8.969-10.513,16.275-19.72,16.275Zm49.716-23.076c-4.158,2.91-9,3.148-13.6,3.148H243.35l-3.475,18.74H229.183l9.444-50.963h14.048c4.4,0,8.286.208,11.583,2.762,3.772,2.881,5.494,7.93,4.544,13.186a20.75,20.75,0,0,1-8.553,13.127Zm29.372,23.076a22,22,0,0,1-17.314-7.692c-4.188-5.049-5.762-11.761-4.455-18.888a32.545,32.545,0,0,1,11.2-18.8,31.354,31.354,0,0,1,20.106-7.722c7.068,0,13.157,2.7,17.255,7.633,4.217,5.079,5.791,11.88,4.455,19.156-2.7,14.523-16.72,26.313-31.273,26.313ZM358.879,45.6a22.319,22.319,0,0,1-6.3,11.2,20.61,20.61,0,0,1-9.029,4.722l10.127,18.5H340.643L332,62.469l-3.267,17.552H318.043l9.444-50.963h14.939c5.019.059,9.415.386,12.741,3.712a14.45,14.45,0,0,1,3.712,12.86Zm13.751,34.421H361.938l7.514-40.569h-9.118l1.93-10.395H391.31l-1.93,10.395h-9.236l-7.514,40.569m48.142-36.975-.119.594h-10.9l.119-.861a3.645,3.645,0,0,0-.772-3.029,3.961,3.961,0,0,0-3.089-1.277,5.275,5.275,0,0,0-5.108,4.6c-.564,2.732,1.366,4.009,4.633,5.2l.891.327c3.029,1.1,5.88,2.138,8.167,4.4,3.178,2.97,4.277,6.86,3.356,11.909-1.663,8.969-10.513,16.275-19.69,16.275A14.457,14.457,0,0,1,387,76.219a13.157,13.157,0,0,1-2.673-11.048l.119-.594h11.078l-.178.891a4.409,4.409,0,0,0,.772,3.683,5.43,5.43,0,0,0,4.247,1.663,7.117,7.117,0,0,0,6.86-5.613c.832-4.544-2.346-6.029-6.593-7.514-3.029-1.069-5.91-2.049-8.078-4.811a12.8,12.8,0,0,1-2.257-10.1c1.515-8.227,9.415-14.671,17.938-14.671a12.912,12.912,0,0,1,10.1,4.6,12.324,12.324,0,0,1,2.495,10.365h-.059Z" transform="translate(2.112 2.364)" fill="#fff"/>
    <path id="Path_10" data-name="Path 10" d="M463.036,423.8H0V0H463.036ZM7.128,416.676h448.78V7.128H7.128V416.676Z" fill="#fff"/>
    <path id="Path_11" data-name="Path 11" d="M95.255,132.986a2.07,2.07,0,0,0-1.307-.386,1.86,1.86,0,0,0-1.218.356,2.312,2.312,0,0,0-.713,1.01,4.946,4.946,0,0,0,0,3.029,1.965,1.965,0,0,0,.713,1.01,2.1,2.1,0,0,0,1.277.356,1.983,1.983,0,0,0,1.277-.386,2.463,2.463,0,0,0,.742-1.039,3.843,3.843,0,0,0,.238-1.455,4.529,4.529,0,0,0-.238-1.455A2.288,2.288,0,0,0,95.255,132.986Z" transform="translate(180.797 261.207)" fill="#fff"/>
    <path id="Path_12" data-name="Path 12" d="M82.836,134.58a2.734,2.734,0,0,0-.446-1.336,1.825,1.825,0,0,0-1.574-.653,2.19,2.19,0,0,0-1.812.742,2.979,2.979,0,0,0-.5,1.247Z" transform="translate(154.636 261.188)" fill="#fff"/>
    <path id="Path_13" data-name="Path 13" d="M88.286,134.58a2.735,2.735,0,0,0-.445-1.336,1.825,1.825,0,0,0-1.574-.653,2.19,2.19,0,0,0-1.812.742,2.979,2.979,0,0,0-.5,1.247Z" transform="translate(165.372 261.188)" fill="#fff"/>
    <path id="Path_14" data-name="Path 14" d="M90.774,132.956a1.975,1.975,0,0,0-1.218-.356,2.07,2.07,0,0,0-1.307.386,2.288,2.288,0,0,0-.772,1.039,3.842,3.842,0,0,0-.238,1.455,4.395,4.395,0,0,0,.238,1.455,2.394,2.394,0,0,0,.742,1.039,1.929,1.929,0,0,0,1.277.386A1.91,1.91,0,0,0,91.487,137a4.946,4.946,0,0,0,0-3.029A1.965,1.965,0,0,0,90.774,132.956Z" transform="translate(171.853 261.207)" fill="#fff"/>
    <path id="Path_15" data-name="Path 15" d="M73.167,132.63a2.259,2.259,0,0,0-1.307.356,2.065,2.065,0,0,0-.742.98,3.746,3.746,0,0,0-.238,1.455,3.3,3.3,0,0,0,.594,2.049,2.03,2.03,0,0,0,1.723.772,2.088,2.088,0,0,0,1.752-.772,3.316,3.316,0,0,0,.564-2.019,3.356,3.356,0,0,0-.594-2.049A2.089,2.089,0,0,0,73.167,132.63Z" transform="translate(139.626 261.267)" fill="#fff"/>
    <path id="Path_16" data-name="Path 16" d="M70.995,132.986a2.07,2.07,0,0,0-1.307-.386,1.86,1.86,0,0,0-1.218.356,2.312,2.312,0,0,0-.713,1.01,3.961,3.961,0,0,0-.238,1.515A4.767,4.767,0,0,0,67.758,137a1.965,1.965,0,0,0,.713,1.01,2.1,2.1,0,0,0,1.277.356,1.983,1.983,0,0,0,1.277-.386,2.233,2.233,0,0,0,.742-1.039A3.842,3.842,0,0,0,72,135.481a4.529,4.529,0,0,0-.238-1.455A2.288,2.288,0,0,0,70.995,132.986Z" transform="translate(133.007 261.207)" fill="#fff"/>
    <path id="Path_17" data-name="Path 17" d="M457.7,181.432l-.149-54.022c-9.415-1.782-19.126-3.148-28.719-4.069-92.868-9.058-187.875,5.732-280.714,10.246-48.528,2.346-93.641,1.633-141.931-3.772-1.663-.178-3.445-.3-5.108-.327v52.953l456.294.5c.119-.445.475-.921.356-1.515ZM204.458,161.8a4.045,4.045,0,0,1-1.4,1.663,3.634,3.634,0,0,1-2.138.624,3.728,3.728,0,0,1-2.168-.624c-.03,0-.059-.059-.119-.089v4.366h-1.99V155H198.4v.653s.208-.178.327-.267a3.465,3.465,0,0,1,2.109-.594,4.018,4.018,0,0,1,2.168.594,3.9,3.9,0,0,1,1.426,1.663,5.616,5.616,0,0,1,.5,2.406,5.48,5.48,0,0,1-.5,2.376h.03Zm10.068.03a3.908,3.908,0,0,1-1.544,1.633,4.815,4.815,0,0,1-4.633,0,4.3,4.3,0,0,1-1.544-1.633,5.3,5.3,0,0,1-.535-2.406,5,5,0,0,1,.564-2.435,4.09,4.09,0,0,1,1.544-1.633,4.444,4.444,0,0,1,2.287-.594,4.554,4.554,0,0,1,2.317.594,4.3,4.3,0,0,1,1.544,1.633,5.3,5.3,0,0,1,.535,2.406,5.078,5.078,0,0,1-.564,2.435Zm10.959,1.99h-1.544l-1.99-6.059-1.99,6.059h-1.544l-2.7-8.85h1.93l1.723,5.673,1.752-5.673h1.663l1.752,5.673,1.723-5.673h1.93l-2.7,8.821Zm11.85-3.861H230.95a2.585,2.585,0,0,0,.564,1.515,2.012,2.012,0,0,0,1.723.742,2.437,2.437,0,0,0,1.247-.327,2.023,2.023,0,0,0,.8-.921l1.96.594a3.7,3.7,0,0,1-1.574,1.841,4.3,4.3,0,0,1-2.346.653,4.666,4.666,0,0,1-2.346-.594,4.087,4.087,0,0,1-1.574-1.6,4.766,4.766,0,0,1-.564-2.376,5.274,5.274,0,0,1,.564-2.524,3.985,3.985,0,0,1,1.544-1.663,4.443,4.443,0,0,1,2.287-.594,4.034,4.034,0,0,1,2.346.653,3.632,3.632,0,0,1,1.426,1.812,6.647,6.647,0,0,1,.356,2.762h-.03Zm6.8-3.118a2.187,2.187,0,0,0-.891-.059,1.7,1.7,0,0,0-.921.3,1.738,1.738,0,0,0-.653.564,2.358,2.358,0,0,0-.386.772,3.206,3.206,0,0,0-.119.95v4.485h-1.99V155.03h1.752v1.426s.149-.238.238-.356a2.474,2.474,0,0,1,.653-.594,2.67,2.67,0,0,1,.713-.356,2.546,2.546,0,0,1,.8-.148h.8Zm9.415,3.118h-6.385a2.585,2.585,0,0,0,.564,1.515,2.012,2.012,0,0,0,1.723.742,2.437,2.437,0,0,0,1.247-.327,2.023,2.023,0,0,0,.8-.921l1.96.594a3.7,3.7,0,0,1-1.574,1.841,4.3,4.3,0,0,1-2.346.653,4.666,4.666,0,0,1-2.346-.594,3.9,3.9,0,0,1-1.574-1.6,4.766,4.766,0,0,1-.564-2.376,5.275,5.275,0,0,1,.564-2.524,3.985,3.985,0,0,1,1.544-1.663,4.444,4.444,0,0,1,2.287-.594,4.034,4.034,0,0,1,2.346.653,3.632,3.632,0,0,1,1.426,1.812,6.648,6.648,0,0,1,.356,2.762h-.03Zm9.622,3.861h-1.752v-.653s-.238.208-.356.3a3.664,3.664,0,0,1-2.168.624,3.766,3.766,0,0,1-2.138-.624,3.834,3.834,0,0,1-1.4-1.663,5.576,5.576,0,0,1-.5-2.376,5.712,5.712,0,0,1,.5-2.406,3.9,3.9,0,0,1,1.426-1.663,3.777,3.777,0,0,1,2.168-.594,3.676,3.676,0,0,1,2.109.594c.03,0,.059.059.089.059V152.03h1.99v11.761h.03Zm13.335-2.019a4.045,4.045,0,0,1-1.4,1.663,3.634,3.634,0,0,1-2.138.624,3.728,3.728,0,0,1-2.168-.624,3.144,3.144,0,0,1-.356-.3v.653H268.7V152.06h1.99v3.386s.059-.059.089-.059a3.465,3.465,0,0,1,2.109-.594,4.018,4.018,0,0,1,2.168.594,3.9,3.9,0,0,1,1.426,1.663,5.616,5.616,0,0,1,.5,2.406,5.48,5.48,0,0,1-.5,2.376h.03Zm4.692,5.94h-1.841l1.455-3.98L277.25,155H279.3l2.465,6.326L284.17,155h1.96Zm47.1,1.99a18.463,18.463,0,0,1-2.821.683H296.139v-4.692h28.57a6.707,6.707,0,0,0,2.435-.891,2.635,2.635,0,0,0,.208-3.118,5.643,5.643,0,0,0-2.257-1.069H296.139V155.95h28.184s1.366-.208,1.515-.238c1.99-.475,2.762-3.207.861-4.277a8.3,8.3,0,0,0-1.4-.535H296.168v-4.692H325.9a12,12,0,0,1,2.287.624c5.138,1.812,6.474,7.484,2.881,11.523a6.833,6.833,0,0,1-2.732,11.345h-.03Zm26.521-8.583-.3.3h-9.741a16.4,16.4,0,0,1-3.118-.564,3.759,3.759,0,0,1-2.495-2.584,15.262,15.262,0,0,1-.535-2.97v-9.058H344.1v8.078a2.737,2.737,0,0,0,2.049,2.227h8.375l.3.3Zm24.561-4.663a10.351,10.351,0,0,1-.891,2.821,6.072,6.072,0,0,1-1.069,1.069c-1.247.861-3.8,1.01-5.346,1.1-2.851.148-5.821-.119-8.672,0v8.969h-6.445V156.9l.3-.3h14.82a2.521,2.521,0,0,0,1.841-1.841v-8.494h5.465v10.216Zm42.262,5.019c-2.049,7.4-9.207,8.7-15.829,8.939-6.92.238-13.869-.208-20.76,0v-4.692c6.385-.148,12.83.208,19.215,0,2.643-.089,6.3-.059,8.672-1.277a6.837,6.837,0,0,0,2.881-9.712c-1.841-3.059-5.554-3.683-8.821-3.831-7.187-.386-14.731.3-21.947,0v-4.692h23.106C416.568,146.179,424.141,152.565,421.646,161.5Z" transform="translate(2.127 237.293)" fill="#fff"/>
  </g>
</svg>
